# xmcd
# 
# Track frame offsets:
#     150
#     20087
#     34154
#     53939
#     68409
#     85104
#     102925
#     119049
#     129936
#     141038
#     156537
# 
# Disc length: 2587
# 
# Revision: 3
# Processed by: cddbd v1.5.2PL0 Copyright (c) Steve Scherf et al.
# Submitted via: BonkEnc v1.0
# 
DISCID=960a190b
DTITLE=Baschi - Irgendwie Held
DYEAR=2005
DGENRE=
TTITLE0=Love and Piis
TTITLE1=Alls Um Dich
TTITLE2=Uf D'chnü
TTITLE3=Dr Mond Schiint Nur Für Eus
TTITLE4=Dr Einzigartig Held
TTITLE5=Himmelgränzelosschön
TTITLE6=Irgendwie Wunderbar
TTITLE7=Roberto Baggio
TTITLE8=Problem
TTITLE9=Alles Anderscht
TTITLE10=Leider Nein
EXTD=
EXTT0=
EXTT1=
EXTT2=
EXTT3=
EXTT4=
EXTT5=
EXTT6=
EXTT7=
EXTT8=
EXTT9=
EXTT10=
PLAYORDER=
